<svg width="79" height="76" viewBox="0 0 79 76" fill="none" xmlns="http://www.w3.org/2000/svg">
<path d="M64.0541 72.9189H14.946C14.6628 72.9189 14.3913 72.8107 14.1911 72.6181C13.9909 72.4255 13.8784 72.1643 13.8784 71.8919V4.10811C13.8784 3.83573 13.9909 3.5745 14.1911 3.38189C14.3913 3.18929 14.6628 3.08109 14.946 3.08109H64.0541C64.3372 3.08109 64.6087 3.18929 64.809 3.38189C65.0092 3.5745 65.1216 3.83573 65.1216 4.10811V71.8919C65.1216 72.1643 65.0092 72.4255 64.809 72.6181C64.6087 72.8107 64.3372 72.9189 64.0541 72.9189ZM16.0135 70.8649H62.9865V5.13514H16.0135V70.8649Z" fill="white"/>
<path d="M14.946 36.973H64.0541V39.027H14.946V36.973Z" fill="white"/>
<path d="M39.5 49.2973C37.1774 49.2973 34.907 48.6347 32.9758 47.3934C31.0446 46.152 29.5395 44.3876 28.6507 42.3233C27.7618 40.259 27.5293 37.9875 27.9824 35.796C28.4355 33.6045 29.5539 31.5915 31.1963 30.0116C32.8386 28.4316 34.931 27.3557 37.209 26.9198C39.487 26.4839 41.8481 26.7076 43.9939 27.5626C46.1397 28.4177 47.9738 29.8657 49.2642 31.7235C50.5545 33.5814 51.2432 35.7656 51.2432 38C51.2399 40.9952 50.0015 43.8668 47.8 45.9848C45.5984 48.1027 42.6135 49.294 39.5 49.2973ZM39.5 28.7567C37.5997 28.7567 35.7421 29.2988 34.162 30.3145C32.582 31.3302 31.3505 32.7738 30.6233 34.4628C29.896 36.1517 29.7058 38.0102 30.0765 39.8033C30.4472 41.5963 31.3623 43.2433 32.706 44.536C34.0498 45.8286 35.7618 46.709 37.6255 47.0656C39.4893 47.4223 41.4212 47.2392 43.1769 46.5396C44.9325 45.84 46.4331 44.6553 47.4889 43.1353C48.5446 41.6152 49.1081 39.8281 49.1081 38C49.1053 35.5494 48.0921 33.1999 46.2908 31.467C44.4896 29.7342 42.0474 28.7595 39.5 28.7567Z" fill="white"/>
<path d="M54.446 72.9189H24.5541C24.2709 72.9189 23.9994 72.8107 23.7992 72.6181C23.599 72.4255 23.4865 72.1643 23.4865 71.8919V63.6757C23.4865 63.4033 23.599 63.1421 23.7992 62.9495C23.9994 62.7569 24.2709 62.6487 24.5541 62.6487H54.446C54.7291 62.6487 55.0006 62.7569 55.2009 62.9495C55.4011 63.1421 55.5135 63.4033 55.5135 63.6757V71.8919C55.5135 72.1643 55.4011 72.4255 55.2009 72.6181C55.0006 72.8107 54.7291 72.9189 54.446 72.9189ZM25.6216 70.8649H53.3784V64.7027H25.6216V70.8649Z" fill="white"/>
<path d="M48.0405 63.6757H45.9054C45.9054 62.0414 45.2305 60.474 44.0293 59.3184C42.828 58.1627 41.1988 57.5135 39.5 57.5135C37.8012 57.5135 36.1719 58.1627 34.9707 59.3184C33.7694 60.474 33.0946 62.0414 33.0946 63.6757H30.9594C30.9594 61.4966 31.8592 59.4068 33.4609 57.8659C35.0626 56.3251 37.2349 55.4595 39.5 55.4595C41.7651 55.4595 43.9374 56.3251 45.5391 57.8659C47.1407 59.4068 48.0405 61.4966 48.0405 63.6757Z" fill="white"/>
<path d="M54.446 13.3514H24.5541C24.2709 13.3514 23.9994 13.2432 23.7992 13.0505C23.599 12.8579 23.4865 12.5967 23.4865 12.3243V4.10811C23.4865 3.83573 23.599 3.5745 23.7992 3.38189C23.9994 3.18929 24.2709 3.08109 24.5541 3.08109H54.446C54.7291 3.08109 55.0006 3.18929 55.2009 3.38189C55.4011 3.5745 55.5135 3.83573 55.5135 4.10811V12.3243C55.5135 12.5967 55.4011 12.8579 55.2009 13.0505C55.0006 13.2432 54.7291 13.3514 54.446 13.3514ZM25.6216 11.2973H53.3784V5.13514H25.6216V11.2973Z" fill="white"/>
<path d="M39.5 20.5405C37.2357 20.5381 35.0648 19.6717 33.4637 18.1314C31.8626 16.5911 30.962 14.5027 30.9594 12.3243H33.0946C33.0946 13.9586 33.7694 15.526 34.9707 16.6816C36.1719 17.8373 37.8012 18.4865 39.5 18.4865C41.1988 18.4865 42.828 17.8373 44.0293 16.6816C45.2305 15.526 45.9054 13.9586 45.9054 12.3243H48.0405C48.038 14.5027 47.1374 16.5911 45.5362 18.1314C43.9351 19.6717 41.7643 20.5381 39.5 20.5405Z" fill="white"/>
</svg>
